inDegrees=yes
name=ik_S49_A10_T01
DataType=double
version=3
OpenSimVersion=4.3-2021-08-27-4bc7ad9
endheader
time	pelvis_tilt	pelvis_list	pelvis_rotation	pelvis_tx	pelvis_ty	pelvis_tz	hip_flexion_r	hip_adduction_r	hip_rotation_r	knee_angle_r	knee_angle_r_beta	ankle_angle_r	subtalar_angle_r	mtp_angle_r	hip_flexion_l	hip_adduction_l	hip_rotation_l	knee_angle_l	knee_angle_l_beta	ankle_angle_l	subtalar_angle_l	mtp_angle_l	lumbar_extension	lumbar_bending	lumbar_rotation	arm_flex_r	arm_add_r	arm_rot_r	elbow_flex_r	pro_sup_r	wrist_flex_r	wrist_dev_r	arm_flex_l	arm_add_l	arm_rot_l	elbow_flex_l	pro_sup_l	wrist_flex_l	wrist_dev_l
5.339999999999974	-0.012299657387867	1.521344590235493	30.35660768427902	0	0.9399999999999999	0	39.35104031603247	-9.919241354858414	-9.723037558568098	46.44254950126542	0.810575401817532	0	0	0	39.35104031603247	-9.919241354858414	-9.723037558568098	46.44254950126542	0.810575401817532	0	0	0	1.008367622853333	1.163791593041174	5.531108894357867	84.93153115086535	4.126328609384995	-13.32586938551429	40.27395652169083	94.36810216168929	0	0	89.56266389182154	-4.662849352976202	11.39581929696419	30.84609789344375	59.47525684928902	0	0
5.359999999999974	-0.1194463247364764	1.501666447004461	30.17959122228049	0	0.9399999999999999	0	39.35318262892861	-9.919347857781874	-9.723271762245597	46.44474544395472	0.8106137282476453	0	0	0	39.35318262892861	-9.919347857781874	-9.723271762245597	46.44474544395472	0.8106137282476453	0	0	0	0.9064940656187916	1.200130355416262	5.501870405958796	84.57570410028339	3.960045509630149	-13.50374117297884	40.78904227856584	94.10985570440093	0	0	89.70333328940789	-4.80488901101954	11.35653907526717	31.17009719921898	59.05900993420144	0	0
5.379999999999973	-0.2102360056113467	1.475683873112469	29.97249907157781	0	0.9399999999999999	0	39.35528879374525	-9.919452592108067	-9.723502089323111	46.44690222762443	0.8106513712239352	0	0	0	39.35528879374525	-9.919452592108067	-9.723502089323111	46.44690222762443	0.8106513712239352	0	0	0	0.8152095689021813	1.222845933193241	5.4910563100402	84.14007312243405	3.763502687647449	-13.76826221479845	41.30169916292494	93.86705179814447	0	0	89.33982888045914	-4.47462158748051	11.11566827949686	31.72816591586349	59.24485203725441	0	0
5.399999999999973	-0.259631119452988	1.465959640661483	29.82696095210126	0	0.9399999999999999	0	39.35691346570903	-9.919533186634013	-9.723679500291876	46.44856863235576	0.8106804554731676	0	0	0	39.35691346570903	-9.919533186634013	-9.723679500291876	46.44856863235576	0.8106804554731676	0	0	0	0.7672705297523292	1.239338213028817	5.516023778626848	83.53487352755104	3.464022060791093	-13.98695932919677	41.90477380053621	93.52404806349421	0	0	89.01947282892965	-4.213967292014963	11.13405022550855	32.236587543921	59.33668290756948	0	0
5.419999999999972	-0.3618312526750801	1.464518755796225	29.51052158496585	0	0.9399999999999999	0	39.35887296640554	-9.91963028226527	-9.723893347163362	46.4505791404378	0.8107155454588372	0	0	0	39.35887296640554	-9.91963028226527	-9.723893347163362	46.4505791404378	0.8107155454588372	0	0	0	0.6790517376775478	1.286184116788092	5.565580937566496	81.93541551187752	3.041833439888793	-13.94873215165824	43.66303735910348	92.80211651719026	0	0	88.53438735413042	-3.907569664596966	11.1966883782973	33.40523667323674	58.35270086834715	0	0
5.439999999999972	-0.4805278510006329	1.459055360907886	29.20212506003365	0	0.9399999999999999	0	39.36091041801348	-9.9197310252222	-9.724115417519524	46.4526724582858	0.8107520807475755	0	0	0	39.36091041801348	-9.9197310252222	-9.724115417519524	46.4526724582858	0.8107520807475755	0	0	0	0.573375419685641	1.338968741751539	5.533575231360562	82.12617561395965	3.33082450254423	-13.78788914348644	43.73997002506479	92.00852339494242	0	0	87.93097496186407	-3.747578007053174	11.16864225527127	34.51607075958008	57.3130984169804	0	0
5.459999999999972	-0.5661645201090476	1.459817982849655	28.91894707725331	0	0.9399999999999999	0	39.36407426072503	-9.919887709703508	-9.724460691814647	46.4559147859858	0.810808670041369	0	0	0	39.36407426072503	-9.919887709703508	-9.724460691814647	46.4559147859858	0.810808670041369	0	0	0	0.5019094424994253	1.374524886801213	5.479732843737692	81.02685077761501	3.351656372831652	-13.78929366166023	45.05097293660848	90.92725900914272	0	0	87.05374074805559	-3.672829569691657	10.89638618650558	35.23120546780775	57.79406336335823	0	0
5.479999999999971	-0.6328065882423363	1.478089954499127	28.52228046386497	0	0.9399999999999999	0	39.4225597774014	-9.921838605685821	-9.729453007341482	46.53499203322979	0.8121888283691904	0	0	0	39.4225597774014	-9.921838605685821	-9.729453007341482	46.53499203322979	0.8121888283691904	0	0	0	0.4507401511531736	1.420868275970513	5.51961339216956	79.66262713763741	3.289751388817963	-13.87043101340744	46.49790613213494	90.33088078183386	0	0	85.78016668774431	-3.513515625383389	10.47437575450412	36.76191953344323	56.88306266820078	0	0
5.499999999999971	-0.7070093535154101	1.477433575381714	28.02165161451991	0	0.9399999999999999	0	39.4878516213486	-9.923997608789906	-9.735000526089008	46.6231056353468	0.8137267008419243	0	0	0	39.4878516213486	-9.923997608789906	-9.735000526089008	46.6231056353468	0.8137267008419243	0	0	0	0.3839799088446167	1.450145131941189	5.644275044651695	78.04260151656105	3.222869452507123	-14.09493602499277	48.32773473353483	89.23080660928215	0	0	84.19610627547978	-3.35355954370495	10.01125134247171	39.54260070588655	53.51364133840747	0	0
5.51999999999997	-0.7663394826648281	1.480324113366084	27.69788198582808	0	0.9399999999999999	0	39.56149947029579	-9.926354653532071	-9.741146633936571	46.72322148149882	0.8154740519906972	0	0	0	39.56149947029579	-9.926354653532071	-9.741146633936571	46.72322148149882	0.8154740519906972	0	0	0	0.3278713676182068	1.484676883444045	5.609364965103638	76.21979981257469	3.130747900187227	-14.53283384744398	50.21366816400304	88.3713317408273	0	0	82.4678120696247	-3.568016569773055	8.962724084421078	41.0366663855202	54.6447139329834	0	0
5.53999999999997	-0.8039795849578432	1.477957623069258	27.39223273133943	0	0.9399999999999999	0	39.6302283377067	-9.928540803943269	-9.746863802853268	46.8162530754724	0.8170977596139146	0	0	0	39.6302283377067	-9.928540803943269	-9.746863802853268	46.8162530754724	0.8170977596139146	0	0	0	0.289298922657007	1.499955000015364	5.72388970685764	74.09617182535128	2.677398313654484	-15.12544661833573	52.33086250125196	87.17168324365039	0	0	80.42758856846575	-3.513729418040378	7.907963230649651	43.41692867572193	53.96485655249658	0	0
5.559999999999969	-0.8698243365977518	1.471593666891634	26.99421133887597	0	0.9399999999999999	0	39.69405354703685	-9.930539485298125	-9.752127379989149	46.9027166174002	0.818606833103491	0	0	0	39.69405354703685	-9.930539485298125	-9.752127379989149	46.9027166174002	0.818606833103491	0	0	0	0.2292056941086839	1.514265422448761	5.758427132261433	71.78635000007912	2.267531839919529	-15.52810067910231	54.48797074600994	85.63116074230173	0	0	78.05115687349431	-3.646257527113555	6.829928689347283	46.01677977633128	53.72354053671771	0	0
5.579999999999969	-0.9123744244881085	1.479925777747344	26.64870705464483	0	0.9399999999999999	0	39.79789373970796	-9.933694950606984	-9.760547337153552	47.04455268970193	0.8210823395632529	0	0	0	39.79789373970796	-9.933694950606984	-9.760547337153552	47.04455268970193	0.8210823395632529	0	0	0	0.198583932421406	1.520758762607766	5.760586994492072	68.88959032411913	1.889852355712376	-15.67219487125945	56.97094182081103	83.77404042436667	0	0	75.22093449452464	-3.647851961308596	5.717610475423817	48.9077453524791	53.73124087548155	0	0
5.599999999999969	-1.031004885029688	1.434397941143103	26.27056568991902	0	0.9399999999999999	0	39.88669530264222	-9.936349385986366	-9.767684350422266	47.16546380193711	0.8231926365740053	0	0	0	39.88669530264222	-9.936349385986366	-9.767684350422266	47.16546380193711	0.8231926365740053	0	0	0	0.07631854287215871	1.518167985557376	5.629693312480014	65.71986003912211	1.795974355933836	-15.7322191533726	59.2049814238632	81.8450132328429	0	0	72.28163941349429	-3.980051416576615	4.658800176777368	51.7731839968285	52.91279551687715	0	0
5.619999999999968	-1.124411955158445	1.397848618086605	26.02412778111372	0	0.9399999999999999	0	39.96572266636282	-9.938668900871779	-9.773972873070747	47.2729903454053	0.8250693287908138	0	0	0	39.96572266636282	-9.938668900871779	-9.773972873070747	47.2729903454053	0.8250693287908138	0	0	0	-0.01524087129931708	1.495265538107314	5.702730431683441	62.17871550908033	0.9219504737481188	-16.18138136161832	61.41358497926208	81.21028814318855	0	0	69.05246578840411	-4.106543489788224	3.892597826644613	54.45754159233773	51.79816934810118	0	0
5.639999999999968	-1.198910890922606	1.34147050062807	25.8576630584292	0	0.9399999999999999	0	39.96826480375344	-9.938776134746618	-9.774226764821735	47.27563759619672	0.8251155320332503	0	0	0	39.96826480375344	-9.938776134746618	-9.774226764821735	47.27563759619672	0.8251155320332503	0	0	0	-0.1076413848907466	1.475455092325264	5.761341816280685	62.36678594864848	1.239633249229779	-16.04227124040563	59.08103014592915	81.97653372259659	0	0	69.12735762231249	-3.876140115579807	4.250444136849764	53.5866758531267	51.0053701783314	0	0
5.659999999999967	-1.250748628106525	1.355338838416845	25.54614468063108	0	0.9399999999999999	0	40.09985838229843	-9.942486979375866	-9.784470213475743	47.45620370216662	0.8282670050999299	0	0	0	40.09985838229843	-9.942486979375866	-9.784470213475743	47.45620370216662	0.8282670050999299	0	0	0	-0.1195851695792871	1.40038901294042	6.025045938343596	58.7992630363328	-0.2639688471098123	-16.64805487889233	59.40723617214614	83.71321774910503	0	0	62.42794290498392	-4.006107862983256	4.609748963702575	58.41030490355702	52.6054958172512	0	0
5.679999999999967	-1.288575828197309	1.271194506589996	25.12836232130807	0	0.9399999999999999	0	40.15882899557544	-9.944158559021071	-9.789081859885036	47.53541063480852	0.8296494268649365	0	0	0	40.15882899557544	-9.944158559021071	-9.789081859885036	47.53541063480852	0.8296494268649365	0	0	0	-0.2234822297460494	1.391160270071132	6.323911059120607	51.76288776289406	-3.079721400556156	-15.4485528778706	63.18077891597309	80.74048300582699	0	0	62.43938445366891	-3.674885236078765	5.073604408239923	56.74640863648588	51.46906348105455	0	0
5.699999999999966	-1.351571414339303	1.208736297774462	24.9482567209799	0	0.9399999999999999	0	40.28654702018429	-9.947632783016083	-9.798847622503926	47.70864491614577	0.8326729354515977	0	0	0	40.28654702018429	-9.947632783016083	-9.798847622503926	47.70864491614577	0.8326729354515977	0	0	0	-0.3088130549215098	1.340663962491983	6.36514356513938	48.01245658464248	-3.730153882073605	-14.00266258395111	64.48963372304337	74.74888274640136	0	0	54.75854193593137	-2.901185786080455	7.557941381267678	56.66871454701533	53.77754783359935	0	0
5.719999999999966	-1.409553715298881	1.165575717568488	24.83550405668558	0	0.9399999999999999	0	40.36527636864505	-9.949685832442986	-9.804716131837322	47.81712878967608	0.8345663362300186	0	0	0	40.36527636864505	-9.949685832442986	-9.804716131837322	47.81712878967608	0.8345663362300186	0	0	0	-0.3718717523804848	1.293061002657799	6.329517920304916	43.99090604140849	-3.964651808590696	-13.09580639555722	63.94010864318492	75.50690511244169	0	0	50.77771019903894	-2.369712281570442	8.352928788108466	55.16605449187522	50.68317031422551	0	0
